<?xml version="1.0" encoding="UTF-8" standalone="no"?>
<svg
   width="64"
   height="64"
   viewBox="0 0 64 64"
   fill="none"
   version="1.1"
   id="svg6"
   sodipodi:docname="check.svg"
   inkscape:version="1.1.1 (3bf5ae0d25, 2021-09-20, custom)"
   xmlns:inkscape="http://www.inkscape.org/namespaces/inkscape"
   xmlns:sodipodi="http://sodipodi.sourceforge.net/DTD/sodipodi-0.dtd"
   xmlns="http://www.w3.org/2000/svg"
   xmlns:svg="http://www.w3.org/2000/svg">
  <defs
     id="defs10">
    <clipPath
       clipPathUnits="userSpaceOnUse"
       id="clipPath1045">
      <path
         id="path1047"
         style="fill:#236a8b;fill-opacity:0.792157;stroke:#31ff25;stroke-width:0.5;stroke-linecap:round;stroke-linejoin:round;stroke-opacity:0.698039"
         d="M 3.3339844,3.3183594 V 19.966797 c 0.1706341,-0.775155 0.3782999,-1.542823 0.6113281,-2.300781 0.2114355,-0.687725 0.1999376,-1.627053 0.8164063,-1.998047 0.011514,-0.0069 0.023613,-0.01266 0.035156,-0.01953 C 5.0921733,14.879009 5.4845887,14.13842 5.878906,13.41797 6.0770965,13.05586 6.4803456,12.852035 6.800781,12.591798 7.3119205,12.17668 7.8452368,11.790832 8.3710938,11.394531 10.426104,9.845817 9.7401939,10.46929 11.044922,9.1445312 11.163054,9.0210386 11.260855,8.9162363 11.394531,8.7753906 11.895047,8.2410514 12.421356,7.6731932 12.953125,7.1171875 13.006569,6.856508 13.055648,6.6317218 13.125,6.4414062 12.913765,5.7003743 13.234154,4.8504729 14.220703,3.3183594 Z m 41.2480466,0 c 0.631237,1.6319012 0.762214,3.4520973 0.736328,5.2304687 0.275638,0.3681188 0.560137,0.731107 0.800782,1.0683594 0.466358,0.6535795 0.818812,1.1041865 1.123047,1.6621095 0.671033,-0.520139 0.705352,-0.664348 1.544921,-1.7265626 2.806206,-3.5503814 6.64929,-1.2190055 3.904297,2.3789066 -1.469168,1.925653 -1.18644,1.769263 -3.414062,3.515625 -0.566046,0.443757 -1.15671,0.865581 -1.794922,1.197265 -0.432969,0.225018 -1.020162,0.776559 -1.390625,0.458985 -3.173142,-2.720137 -1.38422,-4.907457 -2.591797,-3.269532 -0.05452,-0.05374 -0.122732,-0.09572 -0.164062,-0.160156 -0.152136,-0.237177 -0.255511,-0.504029 -0.41211,-0.738281 -0.144725,-0.21649 -0.331392,-0.401531 -0.488281,-0.609375 -0.240918,-0.319163 -0.465642,-0.650426 -0.705078,-0.970703 -0.0734,-0.09818 -0.07744,-0.09996 -0.132813,-0.173828 -1.25733,0.167399 -2.565545,0.188941 -3.664062,0.171875 -0.572503,-0.0089 -1.144708,-0.03071 -1.716797,-0.05664 0.09899,0.04611 0.08811,0.03994 0.195312,0.08984 2.854098,1.328552 1.51621,4.213313 -1.33789,2.884765 -2.424743,-1.128689 -3.10359,-1.417986 -4.50586,-1.978515 -0.241808,0.152972 -0.486205,0.300889 -0.736328,0.439453 -0.452996,0.250953 -0.948881,0.412725 -1.423828,0.61914 -2.432884,0.795371 -2.941979,1.105313 -5.861328,-1.751953 -0.26627,0.327583 -0.534125,0.652575 -0.794922,0.984375 -0.17026,0.216614 -1.289947,1.673893 -1.814453,2.330078 -0.100365,0.172497 -0.204292,0.301568 -0.320312,0.386719 -0.117824,0.132567 -0.238446,0.263094 -0.357422,0.394531 -0.334461,0.26142 -0.582803,0.80878 -1.001954,0.792969 -0.103165,0.157499 -0.594313,0.499604 -0.804687,0.416016 -0.231284,-0.0919 0.2816,-0.279489 0.576172,-0.439453 -0.0052,-6.47e-4 -0.01037,-0.0013 -0.01563,-0.002 -0.547675,0.172019 -1.042596,0.694043 -1.597656,0.580078 -0.169612,-0.03482 -0.380823,-0.08273 -0.607422,-0.136719 -0.269907,0.180438 -0.572768,0.440016 -0.847656,0.585938 -0.465485,0.360741 -0.935968,0.715813 -1.408204,1.068359 0.0139,0.112313 0.02915,0.225099 0.03906,0.337891 0.07565,0.860482 0.05489,1.775318 -0.132813,2.646484 0.03695,0.175829 0.0741,0.352096 0.105469,0.529297 0.351044,1.982697 0.01507,4.030966 -0.132812,6.039062 -0.04802,0.652058 -0.107701,1.302471 -0.173829,1.953125 0.28563,0.100337 0.301784,0.19746 -0.03125,0.291016 -0.15638,1.479176 -0.354792,2.95488 -0.597656,4.421875 -0.233406,1.409865 -0.598177,3.085353 -1.035156,4.726562 0.18508,1.000307 0.173911,2.245083 0.191406,2.69336 -0.05651,0.08376 -0.104272,0.178118 -0.15625,0.267578 0.225178,0.9206 0.451437,1.840815 0.683594,2.759765 0.839169,0.356995 1.196084,0.581003 2.083984,1.091797 1.254073,0.721448 2.10891,1.59035 2.667969,2.503907 3.828321,2.779629 1.911418,1.354987 4.791016,3.480468 0.544655,0.07391 1.089164,0.15203 1.634765,0.216797 2.818053,0.334526 5.640021,0.638333 8.466797,0.888672 1.507485,0.133503 2.530598,0.223083 3.455078,0.300781 0.374059,-0.195444 0.772763,-0.382355 1.208985,-0.550781 2.10389,-0.812314 1.79952,-0.664551 4.507812,-1.941406 1.136235,-0.535691 2.276442,-1.064969 3.384766,-1.65625 0.318596,-0.169968 0.637605,-0.343408 0.949219,-0.527344 0.233045,-1.812066 1.236985,-2.519195 3.029297,-3.976562 0.633298,-0.514949 1.444467,-0.757925 2.160156,-1.150391 0.168,-0.09213 0.172211,-0.09712 0.304687,-0.169922 -0.03164,-0.508627 -0.01264,-1.001887 0.0059,-1.453125 -0.09202,-0.0089 -0.100476,-0.02964 0.002,-0.0625 0.0048,-0.116349 0.01024,-0.247082 0.01367,-0.353515 0.02689,-0.83156 0.141243,-1.393581 0.3125,-1.78125 0.06795,-0.586308 0.193481,-1.210631 0.392578,-1.876954 0.174257,-0.583189 0.351173,-1.165647 0.521484,-1.75 0.306008,-1.04994 0.571753,-2.111129 0.90625,-3.152343 0.873638,-2.719444 2.033518,-5.920564 3.072266,-8.625 0.214158,-0.557572 0.08392,-1.615613 0.679687,-1.658203 0.354163,-0.02532 0.709049,-0.03246 1.0625,-0.02734 0.91536,0.01324 1.827954,0.118165 2.740235,0.259765 V 3.3183594 Z M 15.808594,16.90625 C 15.874804,16.86199 15.938961,16.82036 16,16.789062 c 0.317622,-0.162839 0.604763,-0.379126 0.892578,-0.591796 -0.09088,-0.02989 -0.180952,-0.06446 -0.271484,-0.09766 -0.289956,0.271443 -0.588476,0.531786 -0.894532,0.785157 0.02523,0.0061 0.0573,0.01559 0.08203,0.02148 z m 1.083984,-0.708984 c 0.372261,0.12246 0.746001,0.217772 1.121094,0.265625 0.01168,-0.0037 0.02343,-0.0064 0.03516,-0.0098 0.03889,-0.02171 0.07415,-0.04227 0.101563,-0.0625 0.496313,-0.366188 0.855679,-0.684991 1.101562,-0.962891 -0.243682,0.01085 -0.549254,-0.09058 -0.960937,-0.296875 -0.337864,0.277372 -0.679178,0.54592 -1.212891,0.929688 -0.06231,0.0448 -0.123665,0.09099 -0.185547,0.136719 z m 28.203125,-3.56836 c -0.06614,0.01553 -0.181154,0.2271 -0.121094,0.19336 0.06872,-0.03861 0.13501,-0.08136 0.203125,-0.121094 -0.01967,-0.02122 -0.03851,-0.04375 -0.05859,-0.06445 -0.0069,-0.0071 -0.01399,-0.01013 -0.02344,-0.0078 z m 15.173828,29.669922 -0.08398,0.01563 c -0.0056,0.03182 -0.01014,0.06384 -0.01563,0.0957 0.02396,0.02472 0.04162,0.05326 0.0625,0.08008 0.0188,-0.06379 0.02786,-0.128036 0.03711,-0.191406 z M 3.3339844,45.765625 v 2.740234 C 3.4862685,48.234148 3.6454361,47.966343 3.8144531,47.703125 3.6080372,46.888734 3.5009609,46.441553 3.3339844,45.765625 Z m 57.3320316,1.552734 c -0.283357,0.412199 -0.572204,0.821139 -0.865235,1.226563 -0.803622,1.111855 -1.76312,2.103038 -2.644531,3.154297 -0.890936,1.062618 -1.802889,1.80569 -2.685547,2.279297 -0.553383,0.72214 -1.107615,1.460281 -1.554687,2.054687 -0.127334,0.184769 -0.15713,0.570004 -0.38086,0.552735 -0.78345,-0.06049 -1.6154,-0.042 -2.449218,-0.0293 -0.199228,0.121472 -0.397951,0.235658 -0.597657,0.349609 -0.01589,1.245737 -0.140058,2.494883 -0.279297,3.744141 h 11.457032 z m -14.357422,0.865235 c -0.0092,7e-5 -0.01877,0.004 -0.02539,0.01172 -0.153861,0.178503 -0.281022,0.37549 -0.402344,0.578126 0.186421,-0.121058 0.370979,-0.247096 0.546875,-0.382813 0.05617,-0.04334 -0.05508,-0.207521 -0.11914,-0.207031 z M 3.3339844,51.054688 v 9.595703 H 15.261719 C 13.637777,58.997093 12.980541,57.746528 12.916016,56.742188 12.75367,56.624118 12.81406,56.66873 12.609375,56.519531 11.98863,56.917907 11.370747,57.320047 10.773438,57.746094 9.6034725,56.845656 8.6584177,55.690615 7.5039062,54.773438 7.3741086,54.670322 7.2282866,54.587084 7.09375,54.490234 6.8982751,54.349515 6.7071242,54.204035 6.5136719,54.060547 5.856659,53.477017 5.942717,53.552708 5.8496094,53.470703 5.7741234,53.483986 5.6988699,53.499784 5.6230469,53.511719 5.3107596,53.560875 5.2074247,53.212553 5.1386719,52.816406 5.0281685,52.7125 4.9814965,52.666519 4.7402344,52.443359 4.5643826,52.280702 4.3789343,52.127679 4.2050781,51.962891 4.0276766,51.794742 3.8285548,51.643541 3.6855469,51.445312 3.591575,51.315056 3.4659303,51.185088 3.3339844,51.054688 Z m 6.1113281,4.808593 C 9.2980666,56.003715 9.8749653,56.555644 9.7675781,56.382812 9.6600935,56.209824 9.553619,56.03575 9.4453125,55.863281 Z m 4.0957035,1.330078 c -0.02016,0.205547 -0.02991,0.395644 -0.02344,0.544922 0.03225,0.743402 0.59496,1.405464 1.123047,1.929688 0.248428,0.24661 0.585689,0.363771 0.927734,0.474609 0.06761,-0.433197 0.164016,-0.858582 0.273438,-1.28125 -1.22092,-0.899013 -1.013518,-0.739659 -2.300781,-1.667969 z" />
    </clipPath>
    <clipPath
       clipPathUnits="userSpaceOnUse"
       id="clipPath1055">
      <path
         id="path1057"
         style="fill:#236a8b;fill-opacity:0.792157;stroke:#31ff25;stroke-width:0.5;stroke-linecap:round;stroke-linejoin:round;stroke-opacity:0.698039"
         d="m 45.429688,8.6660156 c 0.24161,0.3252034 0.477813,0.6545677 0.689453,0.9511719 0.466358,0.6535795 0.818818,1.1041865 1.123047,1.6621095 0.671033,-0.520139 0.705352,-0.664348 1.544921,-1.7265626 0.278727,-0.3526422 0.567662,-0.645607 0.859375,-0.8867188 z m 7.974609,0 c 0.418959,0.7497768 0.314753,1.9186754 -0.712891,3.2656254 -1.469168,1.925653 -1.18644,1.769263 -3.414062,3.515625 -0.566046,0.443757 -1.15671,0.865581 -1.794922,1.197265 -0.432969,0.225018 -1.020162,0.776559 -1.390625,0.458985 -3.173142,-2.720137 -1.38422,-4.907457 -2.591797,-3.269532 -0.05452,-0.05374 -0.122732,-0.09572 -0.164062,-0.160156 -0.152136,-0.237177 -0.255511,-0.504029 -0.41211,-0.738281 -0.144725,-0.21649 -0.331392,-0.401531 -0.488281,-0.609375 -0.240918,-0.319163 -0.465642,-0.650426 -0.705078,-0.970703 -0.0734,-0.09818 -0.07744,-0.09996 -0.132813,-0.173828 -1.25733,0.167399 0.329867,12.302151 -0.76865,12.285085 -0.571853,-0.0089 -4.038816,-12.14397 -4.610256,-12.16985 0.0805,0.03749 0.10756,0.04991 0.193359,0.08984 2.854098,1.328552 1.51621,4.213313 -1.33789,2.884765 -2.424745,-1.128689 -3.10359,-1.417986 -4.50586,-1.978515 -0.241808,0.152972 -0.486205,0.300889 -0.736328,0.439453 -0.452996,0.250953 -0.948881,0.412725 -1.423828,0.61914 -2.432884,0.795371 -2.941979,1.105313 -5.861328,-1.751953 C 22.363606,11.825084 22.182112,12.050979 22,12.277344 v 27.082031 h 29.402344 c 0.07084,-0.369601 0.16236,-0.752501 0.28125,-1.150391 0.174257,-0.583189 0.351173,-1.165647 0.521484,-1.75 0.306008,-1.04994 0.571753,-2.111129 0.90625,-3.152343 0.873638,-2.719444 2.033518,-5.920564 3.072266,-8.625 0.214158,-0.557572 0.08392,-1.615613 0.679687,-1.658203 0.354163,-0.02532 0.709049,-0.03246 1.0625,-0.02734 0.91536,0.01324 1.827954,0.118165 2.740235,0.259765 V 8.6660156 Z m -8.308594,3.9628904 c -0.06614,0.01553 -0.181154,0.2271 -0.121094,0.19336 0.06872,-0.03861 0.13501,-0.08136 0.203125,-0.121094 -0.01967,-0.02122 -0.03851,-0.04375 -0.05859,-0.06445 -0.0069,-0.0071 -0.01399,-0.01007 -0.02344,-0.0078 z"
         sodipodi:nodetypes="cscscccssssccsssccccscscccccssssscccccscccc" />
    </clipPath>
  </defs>
  <sodipodi:namedview
     id="namedview8"
     pagecolor="#ffffff"
     bordercolor="#666666"
     borderopacity="1.0"
     inkscape:pageshadow="2"
     inkscape:pageopacity="0.0"
     inkscape:pagecheckerboard="0"
     showgrid="false"
     inkscape:zoom="10.0625"
     inkscape:cx="32"
     inkscape:cy="32"
     inkscape:window-width="1920"
     inkscape:window-height="1019"
     inkscape:window-x="0"
     inkscape:window-y="0"
     inkscape:window-maximized="1"
     inkscape:current-layer="svg6" />
  <path
     d="M58.6666 29.5466V32C58.6633 37.7504 56.8013 43.3458 53.3581 47.9515C49.915 52.5572 45.0753 55.9266 39.5609 57.557C34.0464 59.1875 28.1526 58.9917 22.7585 56.9989C17.3644 55.006 12.759 51.3229 9.62915 46.4988C6.4993 41.6747 5.0127 35.9682 5.39106 30.2302C5.76942 24.4922 7.99247 19.0302 11.7287 14.6588C15.4649 10.2875 20.514 7.241 26.1231 5.97371C31.7322 4.70641 37.6006 5.28622 42.8533 7.62665"
     stroke="#34CB79"
     stroke-width="4"
     stroke-linecap="round"
     stroke-linejoin="round"
     id="path2"
     clip-path="url(#clipPath1045)" />
  <text
     xml:space="preserve"
     style="font-size:40px;line-height:0.65;font-family:'Sheeping Cats Straight';-inkscape-font-specification:'Sheeping Cats Straight';fill:#00ff00"
     x="2.6867235"
     y="47.979424"
     id="text2791"><tspan
       sodipodi:role="line"
       id="tspan2789"
       x="2.6867235"
       y="47.979424">ok</tspan></text>
</svg>
