<?xml version="1.0" encoding="UTF-8" standalone="no"?>
<svg
   width="20"
   height="20"
   viewBox="0 0 24 24"
   fill="none"
   stroke="white"
   stroke-width="2"
   stroke-linecap="round"
   stroke-linejoin="round"
   class="feather feather-search"
   version="1.1"
   id="svg6"
   sodipodi:docname="search.svg"
   inkscape:version="1.1.1 (3bf5ae0d25, 2021-09-20, custom)"
   xmlns:inkscape="http://www.inkscape.org/namespaces/inkscape"
   xmlns:sodipodi="http://sodipodi.sourceforge.net/DTD/sodipodi-0.dtd"
   xmlns="http://www.w3.org/2000/svg"
   xmlns:svg="http://www.w3.org/2000/svg">
  <defs
     id="defs10" />
  <sodipodi:namedview
     id="namedview8"
     pagecolor="#ffffff"
     bordercolor="#666666"
     borderopacity="1.0"
     inkscape:pageshadow="2"
     inkscape:pageopacity="0.0"
     inkscape:pagecheckerboard="0"
     showgrid="false"
     inkscape:zoom="13.995495"
     inkscape:cx="2.7632167"
     inkscape:cy="9.5527378"
     inkscape:window-width="1366"
     inkscape:window-height="707"
     inkscape:window-x="0"
     inkscape:window-y="0"
     inkscape:window-maximized="1"
     inkscape:current-layer="svg6"
     inkscape:rotation="-1" />
  <polyline
     points="12 19 5 12 12 5"
     id="polyline4"
     transform="matrix(-1.2959364,0,0,1.2959364,27.138763,-3.6565827)"
     style="fill:#00ff00" />
  <g
     id="path1358"
     style="fill:#00ff00;fill-opacity:1;stroke:none"
     transform="matrix(-0.91918584,0,0,0.91918584,22.722062,1.3166348)">
    <path
       style="color:#000000;fill:#00ff00;fill-opacity:1;stroke:none;stroke-width:0.0273585;stroke-linecap:round;stroke-linejoin:round;-inkscape-stroke:none"
       d="m 7.3579142,11.506659 v -2.02587 l 7.4825618,0.01424 7.482562,0.01424 0.343732,0.158732 c 0.443417,0.204762 0.884957,0.670271 1.054315,1.111548 0.166122,0.432846 0.166122,1.020943 0,1.453788 -0.160064,0.417062 -0.620273,0.915174 -1.032649,1.117699 l -0.310681,0.152581 -7.50992,0.01439 -7.5099208,0.01439 z"
       id="path1626" />
    <path
       style="color:#000000;fill:#00ff00;fill-opacity:1;stroke:none;stroke-linecap:round;stroke-linejoin:round;-inkscape-stroke:none"
       d="M 7.3574219,9.4667969 A 0.01368062,0.01368062 0 0 0 7.34375,9.4804688 v 2.0253902 2.027344 a 0.01368062,0.01368062 0 0 0 0.013672,0.01367 l 7.509766,-0.01563 7.509765,-0.01367 a 0.01368062,0.01368062 0 0 0 0.0059,-0.002 l 0.3125,-0.152344 c 0.416728,-0.204662 0.877162,-0.703151 1.039063,-1.125 0.167607,-0.436714 0.167607,-1.026175 0,-1.46289 -0.171055,-0.445698 -0.615057,-0.91252 -1.0625,-1.119141 l -0.34375,-0.1601562 a 0.01368062,0.01368062 0 0 0 -0.0059,0 l -7.482422,-0.015625 z m 0.013672,0.027344 7.4687501,0.013672 7.480468,0.015625 0.339844,0.15625 c 0.439391,0.2029026 0.881167,0.6686131 1.048828,1.1054681 0.164637,0.428976 0.164637,1.014385 0,1.44336 -0.158226,0.412274 -0.619319,0.908987 -1.027343,1.109375 l -0.306641,0.152343 -7.507812,0.01367 -7.4960941,0.01563 v -2.013672 z"
       id="path1628" />
  </g>
  <path
     style="fill:#00ff00;fill-opacity:1;stroke:#000000;stroke-width:0.0171276;stroke-linecap:round;stroke-linejoin:round;stroke-opacity:0.698039"
     d="m 12.008927,22.170824 c 0.101029,-0.03725 0.262885,-0.129251 0.35968,-0.204421 0.0968,-0.07516 2.236242,-2.199113 4.754322,-4.719876 3.610068,-3.613911 4.596295,-4.619425 4.66329,-4.754478 0.17886,-0.360566 0.194477,-0.685902 0.05174,-1.077698 -0.06526,-0.179116 -0.334251,-0.455099 -4.799095,-4.9238054 -5.352122,-5.3567537 -4.875139,-4.9259604 -5.454126,-4.9259604 -0.279879,0 -0.330503,0.010576 -0.53684,0.1121559 -0.285283,0.1404448 -0.54087,0.4105253 -0.647667,0.684396 -0.117252,0.300684 -0.109944,0.6764993 0.0188,0.9675991 0.09362,0.2116735 0.303984,0.4284533 4.263126,4.3931851 l 4.164643,4.1705227 -4.16454,4.17066 c -3.873791,3.879481 -4.170687,4.185009 -4.252576,4.376191 -0.158984,0.371184 -0.153302,0.76045 0.01596,1.093659 0.113889,0.224193 0.383807,0.480924 0.61836,0.58815 0.283288,0.129504 0.673008,0.150011 0.944923,0.04972 z"
     id="path1953" />
</svg>
